<?xml version="1.0" encoding="utf-8"?>
<!-- Generator: Adobe Illustrator 14.0.0, SVG Export Plug-In  -->
<!DOCTYPE svg PUBLIC "-//W3C//DTD SVG 1.1//EN" "http://www.w3.org/Graphics/SVG/1.1/DTD/svg11.dtd" [
	<!ENTITY ns_flows "http://ns.adobe.com/Flows/1.0/">
]>
<svg version="1.1"
	 xmlns="http://www.w3.org/2000/svg" xmlns:xlink="http://www.w3.org/1999/xlink" xmlns:a="http://ns.adobe.com/AdobeSVGViewerExtensions/3.0/"
	 x="0px" y="0px" width="1089px" height="416px" viewBox="59.703 61.437 1089 416" enable-background="new 59.703 61.437 1089 416"
	 xml:space="preserve">
<defs>
</defs>
<rect x="0.5" y="0.5" display="none" fill="#A5AFCA" stroke="#000000" width="1224" height="792"/>
<path fill="#241B2E" d="M532.436,188.29c-12.519,0-23.64,13.216-30.684,33.679c5.744,0.666,10.221,5.334,13.514,12.261
	c5.47,0,17.173-0.001,17.173-0.001c9.829,0,17.806,17.643,17.806,39.405s-7.977,39.413-17.806,39.413l-16.716,0.001
	c0.018-0.037,0.033-0.076,0.051-0.113c-1.529,3.225-3.299,5.899-5.305,7.907c-3.107,3.111-6.268,4.186-8.714,4.464
	c0.94,2.733,1.956,5.333,3.037,7.792c1.683,1.187,2.668,3.181,2.535,5.274c6.748,12.832,15.516,20.604,25.108,20.604
	c21.296,0,38.56-38.21,38.56-85.343C570.995,226.5,553.731,188.29,532.436,188.29z"/>
<path fill="none" d="M532.438,234.228c0,0-11.703,0.001-17.173,0.001c4.814,10.128,7.099,25.075,7.099,39.404l-0.033,1.193
	c0.01,15.992-2.345,29.296-6.608,38.221l16.716-0.001c9.829,0,17.806-17.651,17.806-39.413S542.268,234.228,532.438,234.228z"/>
<path fill="#241B2E" d="M500.324,221.877c-1.738,0-3.366,0.357-4.89,1.021c11.763,5.093,17.182,28.652,17.182,50.734
	c0,24.928-6.897,51.757-22.04,51.757c-1.443,0-2.811-0.247-4.105-0.709c-0.109,0.469-0.205,0.945-0.27,1.432
	c-0.896,6.723,2.951,14.795,13.565,17.676c0.526,0.143,1.055,0.211,1.575,0.211c2.642,0,5.062-1.758,5.787-4.43
	c0.867-3.198-1.021-6.494-4.22-7.362c-1.571-0.426-5.185-1.719-4.813-4.51c0.119-0.892,0.829-2.308,2.229-2.308
	c2.556,0,6.391-0.789,10.145-4.548c7.555-7.563,11.876-24.333,11.862-46.015l0.033-1.193
	C522.364,248.706,515.467,221.877,500.324,221.877z"/>
<path fill="none" d="M490.576,221.877c-1.733,0-3.354,0.367-4.874,1.027c11.753,5.106,17.167,28.655,17.167,50.728
	c0,22.074-5.414,45.623-17.167,50.729c1.52,0.66,3.141,1.027,4.874,1.027c15.143,0,22.04-26.829,22.04-51.757
	C512.616,248.706,505.719,221.877,490.576,221.877z"/>
<path fill="#241B2E" d="M480.829,221.877c-1.734,0-3.354,0.367-4.874,1.027c11.752,5.107,17.166,28.655,17.166,50.728
	c0,22.073-5.414,45.623-17.166,50.729c1.52,0.66,3.14,1.027,4.874,1.027c15.143,0,22.04-26.829,22.04-51.757
	C502.869,248.706,495.972,221.877,480.829,221.877z"/>
<path fill="none" d="M471.081,221.877c-1.733,0-3.354,0.367-4.874,1.027c11.754,5.107,17.168,28.655,17.168,50.728
	c0,22.074-5.414,45.623-17.168,50.729c1.52,0.66,3.141,1.027,4.874,1.027c15.143,0,22.04-26.829,22.04-51.757
	C493.121,248.706,486.224,221.877,471.081,221.877z"/>
<path fill="#241B2E" d="M461.333,221.877c-1.733,0-3.354,0.367-4.874,1.027c11.754,5.107,17.168,28.655,17.168,50.728
	c0,22.074-5.414,45.623-17.168,50.729c1.52,0.66,3.141,1.027,4.874,1.027c15.145,0,22.042-26.829,22.042-51.757
	C483.375,248.706,476.478,221.877,461.333,221.877z"/>
<path fill="none" d="M451.585,221.877c-1.733,0-3.354,0.367-4.873,1.027c11.754,5.106,17.168,28.655,17.168,50.728
	c0,22.074-5.414,45.624-17.168,50.729c1.52,0.66,3.14,1.027,4.873,1.027c15.145,0,22.042-26.829,22.042-51.757
	C473.627,248.706,466.729,221.877,451.585,221.877z"/>
<path fill="none" d="M451.585,221.877c-1.733,0-3.354,0.367-4.873,1.027c11.754,5.106,17.168,28.655,17.168,50.728
	c0,22.074-5.414,45.624-17.168,50.729c1.52,0.66,3.14,1.027,4.873,1.027c15.145,0,22.042-26.829,22.042-51.757
	C473.627,248.706,466.729,221.877,451.585,221.877z"/>
<path fill="#241B2E" d="M446.725,222.91c4.743,14.181,7.551,31.724,7.551,50.723c0,18.999-2.809,36.543-7.552,50.725
	c11.746-5.117,17.156-28.658,17.156-50.725C463.88,251.567,458.47,228.027,446.725,222.91z"/>
<path fill="#241B2E" d="M415.718,188.29c-21.297,0-38.559,38.21-38.559,85.343c0,47.133,17.262,85.343,38.559,85.343
	c21.295,0,38.558-38.21,38.558-85.343C454.275,226.5,437.013,188.29,415.718,188.29z M415.718,306.542
	c-8.212,0-14.868-14.735-14.868-32.909c0-18.175,6.656-32.909,14.868-32.909c8.21,0,14.868,14.734,14.868,32.909
	C430.586,291.807,423.928,306.542,415.718,306.542z"/>
<path fill="#241B2E" d="M1004.669,188.29c-12.519,0-23.64,13.216-30.684,33.679c5.744,0.666,10.221,5.334,13.514,12.261
	c5.47,0,17.173-0.001,17.173-0.001c9.829,0,17.806,17.643,17.806,39.405s-7.977,39.413-17.806,39.413l-16.716,0.001
	c0.018-0.037,0.033-0.076,0.051-0.113c-1.529,3.225-3.299,5.899-5.305,7.907c-3.107,3.111-6.268,4.186-8.714,4.464
	c0.94,2.733,1.956,5.333,3.037,7.792c1.683,1.187,2.668,3.181,2.535,5.274c6.748,12.832,15.516,20.604,25.108,20.604
	c21.296,0,38.56-38.21,38.56-85.343C1043.229,226.5,1025.965,188.29,1004.669,188.29z"/>
<path fill="none" d="M1004.672,234.228c0,0-11.703,0.001-17.173,0.001c4.814,10.128,7.099,25.075,7.099,39.404l-0.033,1.193
	c0.01,15.992-2.345,29.296-6.608,38.221l16.716-0.001c9.829,0,17.806-17.651,17.806-39.413S1014.501,234.228,1004.672,234.228z"/>
<path fill="#241B2E" d="M972.558,221.877c-1.738,0-3.366,0.357-4.89,1.021c11.763,5.093,17.182,28.652,17.182,50.734
	c0,24.928-6.897,51.757-22.04,51.757c-1.443,0-2.811-0.247-4.105-0.709c-0.109,0.469-0.205,0.945-0.27,1.432
	c-0.896,6.723,2.951,14.795,13.565,17.676c0.526,0.143,1.055,0.211,1.575,0.211c2.642,0,5.062-1.758,5.787-4.43
	c0.867-3.198-1.021-6.494-4.22-7.362c-1.571-0.426-5.185-1.719-4.813-4.51c0.119-0.892,0.829-2.308,2.229-2.308
	c2.556,0,6.391-0.789,10.145-4.548c7.555-7.563,11.876-24.333,11.862-46.015l0.033-1.193
	C994.598,248.706,987.701,221.877,972.558,221.877z"/>
<path fill="none" d="M962.81,221.877c-1.733,0-3.354,0.367-4.874,1.027c11.753,5.106,17.167,28.655,17.167,50.728
	c0,22.074-5.414,45.623-17.167,50.729c1.52,0.66,3.141,1.027,4.874,1.027c15.143,0,22.04-26.829,22.04-51.757
	C984.85,248.706,977.953,221.877,962.81,221.877z"/>
<path fill="#241B2E" d="M953.063,221.877c-1.734,0-3.354,0.367-4.874,1.027c11.752,5.107,17.166,28.655,17.166,50.728
	c0,22.073-5.414,45.623-17.166,50.729c1.52,0.66,3.14,1.027,4.874,1.027c15.143,0,22.04-26.829,22.04-51.757
	C975.103,248.706,968.206,221.877,953.063,221.877z"/>
<path fill="none" d="M943.315,221.877c-1.733,0-3.354,0.367-4.874,1.027c11.754,5.107,17.168,28.655,17.168,50.728
	c0,22.074-5.414,45.623-17.168,50.729c1.52,0.66,3.141,1.027,4.874,1.027c15.143,0,22.04-26.829,22.04-51.757
	C965.355,248.706,958.458,221.877,943.315,221.877z"/>
<path fill="#241B2E" d="M933.567,221.877c-1.733,0-3.354,0.367-4.874,1.027c11.754,5.107,17.168,28.655,17.168,50.728
	c0,22.074-5.414,45.623-17.168,50.729c1.52,0.66,3.141,1.027,4.874,1.027c15.145,0,22.042-26.829,22.042-51.757
	C955.609,248.706,948.711,221.877,933.567,221.877z"/>
<path fill="none" d="M923.819,221.877c-1.733,0-3.354,0.367-4.873,1.027c11.754,5.106,17.168,28.655,17.168,50.728
	c0,22.074-5.414,45.624-17.168,50.729c1.52,0.66,3.14,1.027,4.873,1.027c15.145,0,22.042-26.829,22.042-51.757
	C945.861,248.706,938.963,221.877,923.819,221.877z"/>
<path fill="none" d="M923.819,221.877c-1.733,0-3.354,0.367-4.873,1.027c11.754,5.106,17.168,28.655,17.168,50.728
	c0,22.074-5.414,45.624-17.168,50.729c1.52,0.66,3.14,1.027,4.873,1.027c15.145,0,22.042-26.829,22.042-51.757
	C945.861,248.706,938.963,221.877,923.819,221.877z"/>
<path fill="#241B2E" d="M918.958,222.91c4.743,14.181,7.551,31.724,7.551,50.723c0,18.999-2.809,36.543-7.552,50.725
	c11.746-5.117,17.156-28.658,17.156-50.725C936.114,251.567,930.704,228.027,918.958,222.91z"/>
<path fill="#241B2E" d="M887.952,188.29c-21.297,0-38.559,38.21-38.559,85.343c0,47.133,17.262,85.343,38.559,85.343
	c21.295,0,38.558-38.21,38.558-85.343C926.509,226.5,909.247,188.29,887.952,188.29z M887.952,306.542
	c-8.212,0-14.868-14.735-14.868-32.909c0-18.175,6.656-32.909,14.868-32.909c8.21,0,14.868,14.734,14.868,32.909
	C902.82,291.807,896.162,306.542,887.952,306.542z"/>
<path fill="#241B2E" d="M325.281,188.394c-8.314,0-16.015,5.824-22.313,15.731v-5.88c0-8.973-7.273-16.246-16.246-16.246
	c-8.972,0-16.247,7.272-16.247,16.246v263.184c0,8.973,7.275,16.246,16.247,16.246c8.973,0,16.246-7.273,16.246-16.246V343.347
	c6.298,9.907,13.999,15.733,22.313,15.733c21.296,0,38.559-38.21,38.559-85.345C363.839,226.602,346.577,188.394,325.281,188.394z
	 M318.281,306.644c-8.212,0-14.869-14.732-14.869-32.908c0-18.175,6.656-32.908,14.869-32.908c8.211,0,14.868,14.733,14.868,32.908
	C333.148,291.911,326.492,306.644,318.281,306.644z"/>
<path fill="#241B2E" d="M1110.637,188.394c-8.314,0-16.015,5.824-22.313,15.731v-5.88c0-8.973-7.273-16.246-16.246-16.246
	c-8.971,0-16.246,7.272-16.246,16.246v263.184c0,8.973,7.275,16.246,16.246,16.246c8.973,0,16.246-7.273,16.246-16.246V343.347
	c6.299,9.907,13.999,15.733,22.313,15.733c21.296,0,38.559-38.21,38.559-85.345C1149.196,226.602,1131.933,188.394,1110.637,188.394
	z M1103.637,306.644c-8.212,0-14.868-14.732-14.868-32.908c0-18.175,6.656-32.908,14.868-32.908s14.868,14.733,14.868,32.908
	C1118.505,291.911,1111.849,306.644,1103.637,306.644z"/>
<path fill="#241B2E" d="M700.472,181.997c-6.682,0-10.417,4.038-12.911,9.806c-5.024-5.307-10.647-8.285-16.586-8.285
	c-21.295,0-38.558,38.209-38.558,85.344c0,47.136,17.263,85.344,38.558,85.344c5.808,0,11.311-2.859,16.25-7.948
	c2.272,6.23,6.231,10.687,13.247,10.687c8.974,0,16.246-7.273,16.246-16.246V198.244
	C716.718,189.27,709.446,181.997,700.472,181.997z M674.975,301.77c-8.212,0-14.868-14.732-14.868-32.908
	c0-18.176,6.656-32.91,14.868-32.91c8.213,0,14.868,14.734,14.868,32.91C689.843,287.038,683.188,301.77,674.975,301.77z"/>
<path fill="#241B2E" d="M602.687,360.704c-8.973,0-16.246-7.274-16.246-16.246V81.273c0-8.972,7.273-16.246,16.246-16.246
	c8.973,0,16.246,7.274,16.246,16.246v263.186C618.932,353.43,611.66,360.704,602.687,360.704L602.687,360.704z"/>
<path fill="#241B2E" d="M767.751,269.472c0-18.175,8.101-32.909,18.094-32.909c9.992,0,18.094,14.734,18.094,32.909v75.388
	c0,8.973,7.272,16.247,16.245,16.247l0,0c8.972,0,16.247-7.273,16.247-16.247l-0.204-75.388c0-47.135-20.643-85.343-46.106-85.343
	c-8.161,0-15.826,3.923-22.476,10.808l0.001-113.664c0-8.972-7.272-16.246-16.246-16.246c-8.972,0-16.244,7.274-16.244,16.246
	v263.186c0,8.971,7.272,16.246,16.244,16.246l0,0c8.974,0,16.246-7.274,16.246-16.246L767.751,269.472z"/>
<path fill="#241B2E" d="M155.261,390.432c-16.329,0-32.02-2.625-43.667-8.147c-22.656-10.737-41.199-32.304-48.391-56.282
	c-6.989-23.301-3.466-47.509,10.188-70.012c4.654-7.671,14.646-10.118,22.316-5.462c7.671,4.655,10.116,14.646,5.462,22.316
	c-8.875,14.629-11.178,29.372-6.845,43.822c4.562,15.208,16.803,29.44,31.185,36.257c18.691,8.859,58.329,4.743,75.185-6.908
	c26.203-18.11,31.659-62.77,20.83-83.419c-16.377-31.226-44.912-44.792-70.087-56.758c-21.509-10.225-41.823-19.88-50.494-39.29
	c-8.63-19.318-7.822-42.187,2.217-62.743c9.804-20.074,26.853-34.41,46.778-39.33c24.777-6.119,60.457-3.948,80.247,15.277
	c6.437,6.251,6.585,16.537,0.334,22.972c-6.253,6.436-16.537,6.585-22.974,0.333c-7.666-7.446-29.514-12.051-49.816-7.038
	c-10.557,2.607-19.804,10.641-25.373,22.044c-5.72,11.709-6.372,24.879-1.748,35.231c3.78,8.463,18.145,15.292,34.777,23.198
	c28.291,13.448,63.5,30.185,84.913,71.012c16.671,31.787,11.344,96.694-31.13,126.053
	C203.335,384.5,179.798,390.432,155.261,390.432L155.261,390.432z"/>
</svg>
